<svg width="1220" height="740" viewBox="0 0 1220 740" fill="none" xmlns="http://www.w3.org/2000/svg">
<path d="M779.757 580.032C777.116 579.537 714.306 568.562 680.879 601.982C647.452 635.403 658.429 698.2 658.925 700.841L660.08 707.112L666.353 708.268C667.426 708.433 678.321 710.331 693.094 710.331C714.966 710.331 745.257 706.205 765.231 686.235C798.658 652.814 787.68 590.017 787.185 587.376L786.03 581.105L779.757 580.032Z" fill="white" fill-opacity="0.05"/>
<path d="M588.687 450.393C587.119 448.165 550.555 396.012 503.262 396.012C455.969 396.012 419.324 448.165 417.838 450.393L414.206 455.592L417.838 460.873C418.498 461.781 424.853 470.775 435.253 481.255C450.687 496.687 475.035 515.171 503.262 515.171C550.555 515.171 587.201 463.019 588.687 460.791L592.318 455.592L588.687 450.393Z" fill="white" fill-opacity="0.05"/>
<path d="M1081.26 397.085C1078.45 396.59 1012.84 385.037 977.843 420.108C942.848 455.096 954.32 520.7 954.898 523.505L956.054 530.025L962.574 531.262C963.729 531.427 975.119 533.49 990.553 533.49C1013.42 533.49 1045.11 529.117 1065.99 508.322C1100.99 473.333 1089.51 407.73 1089.02 404.924L1087.86 398.405L1081.26 397.085Z" fill="white" fill-opacity="0.05"/>
<path d="M857.34 162.067C854.533 161.819 788.092 156.538 756.564 194.662C725.035 232.786 742.615 297.069 743.358 299.792L745.174 306.229L751.776 306.806C752.932 306.889 764.404 307.797 779.839 306.394C802.536 304.248 833.734 296.987 852.552 274.294C884.081 236.252 866.501 171.886 865.758 169.163L863.942 162.727L857.34 162.067Z" fill="white" fill-opacity="0.05"/>
<path d="M494.511 3.79591C492.2 5.36379 437.643 43.653 437.643 93.1649C437.643 142.594 492.2 180.884 494.511 182.534L499.958 186.33L505.405 182.534C506.313 181.874 515.805 175.272 526.782 164.297C542.959 148.123 562.273 122.625 562.273 93.1649C562.273 43.7355 507.716 5.44631 505.405 3.79591L499.958 0L494.511 3.79591Z" fill="white" fill-opacity="0.05"/>
<path d="M150.007 165.865C152.813 165.7 219.42 163.059 249.463 202.421C279.506 241.7 259.368 305.241 258.46 307.964L256.396 314.318L249.711 314.648C248.555 314.73 237 315.143 221.649 313.08C199.034 310.027 168.165 301.527 150.255 278.092C120.212 238.812 140.351 175.272 141.176 172.549L143.239 166.195L150.007 165.865Z" fill="white" fill-opacity="0.05"/>
<path d="M-74.7378 397.085C-71.9316 396.59 -6.31559 385.037 28.6796 420.108C63.6748 455.096 52.2023 520.7 51.6246 523.505L50.4689 530.025L43.9488 531.262C42.7933 531.427 31.4032 533.49 15.969 533.49C-6.89342 533.49 -38.5873 529.117 -59.4689 508.322C-94.4641 473.333 -82.9914 407.73 -82.4962 404.924L-81.3408 398.405L-74.7378 397.085Z" fill="white" fill-opacity="0.05"/>
<path d="M220.245 578.548C222.969 578.052 286.522 566.912 320.361 600.828C354.201 634.661 343.141 698.201 342.646 700.924L341.491 707.278L335.135 708.434C334.062 708.599 323.003 710.579 308.064 710.579C285.944 710.579 255.24 706.371 235.019 686.236C201.179 652.403 212.239 588.862 212.734 586.139L213.89 579.785L220.245 578.548Z" fill="white" fill-opacity="0.05"/>
<path d="M410.574 671.959C375.991 717.179 350.075 766.279 332.825 819.999C282.808 753.736 206.38 712.228 130.364 676.497C137.215 599.589 169.487 541.825 232.379 492.23C248.556 479.275 267.374 466.649 290.154 453.446C326.965 431.826 367.242 412.681 409.996 392.381C422.706 386.275 435.665 380.086 448.54 373.814L450.604 372.824C415.113 353.597 387.876 331.894 372.112 318.113C322.095 341.879 270.593 366.552 223.878 396.507C127.311 335.525 58.9711 277.101 38.5023 192.518L38.4196 192.105C14.8969 211.91 -7.7179 232.788 -29.4248 254.573C5.32275 340.971 77.2114 399.973 153.392 450.145C97.3502 502.38 63.5105 565.013 51.0476 640.023C-59.8805 588.283 -150.505 535.141 -159.749 414.331C-181.621 447.339 -201.76 481.668 -220 517.316C-170.479 630.946 -52.6998 684.667 54.2666 733.436C189.213 794.913 305.753 848.056 306.166 1000.47C306.166 1000.72 306.166 1000.88 306.166 1001.13V1010.79H306.248V1477.52H389.692V1010.79V1001.13V999.727C389.94 895.092 416.351 807.786 469.917 732.941C447.467 703.811 424.687 683.264 410.574 671.959Z" fill="white" fill-opacity="0.05"/>
<path d="M1159.67 414.416C1150.42 535.142 1059.88 588.285 948.952 640.025C939.13 579.868 915.608 528.128 878.054 483.237C863.445 494.295 837.446 512.862 807.816 530.109C844.214 571.038 864.188 618.322 869.47 676.664C793.455 712.312 717.109 753.903 667.175 820.166C645.303 752.252 609.812 691.683 560.373 637.137C616.58 590.183 681.949 550.904 745.336 512.944L758.954 504.775C765.475 500.814 772.078 496.936 778.598 492.975C797.416 481.587 817.472 469.374 836.373 456.996C916.268 405.339 993.191 344.934 1029.51 254.575C1007.8 232.789 985.185 211.912 961.745 192.107L961.663 192.437C941.194 277.02 872.771 335.527 776.287 396.426C728.911 366.059 676.666 341.138 625.989 317.042L611.298 310.028C602.549 305.82 593.966 301.694 585.299 297.485C678.73 233.78 736.835 157.284 764.815 60.7355C739.806 47.8624 714.22 36.0621 688.139 25.252C657.601 145.813 577.211 208.116 500.205 252.842C423.199 208.199 342.809 145.813 312.188 25.252C286.107 36.1446 260.521 47.9449 235.513 60.7355C264.813 162.152 327.292 241.372 429.059 306.975C448.702 319.683 470.492 332.308 495.665 345.677C526.038 361.768 556.412 376.292 590.086 392.3L591.324 392.878C628.218 410.455 663.213 427.289 695.65 445.361C632.097 483.32 561.694 526.065 500.122 578.713C451.261 536.958 397.2 501.804 349.164 472.345C312.931 490.664 285.612 510.964 271.25 522.599C334.225 560.476 395.054 598.188 447.299 643.243C464.88 658.427 479.818 672.786 493.024 687.144C573.084 773.212 610.39 872.979 610.39 1000.97V1010.62V1477.35H693.834V1010.62V1000.97C693.834 847.975 810.54 794.75 945.733 733.19C1052.7 684.503 1170.4 630.783 1220 517.153C1201.68 481.752 1181.54 447.341 1159.67 414.416Z" fill="white" fill-opacity="0.05"/>
</svg>
