<svg width="98" height="50" viewBox="0 0 98 50" fill="none" xmlns="http://www.w3.org/2000/svg">
<path d="M82.8326 12.4651C82.7757 12.4545 81.4156 12.2182 80.692 12.9378C79.9683 13.6557 80.2048 15.0051 80.2155 15.0615L80.2404 15.1956L80.3755 15.2203C80.3986 15.2238 80.6351 15.2661 80.9551 15.2661C81.428 15.2661 82.0841 15.1762 82.5161 14.7493C83.2398 14.0314 83.0033 12.6821 82.9926 12.6256L82.9677 12.4916L82.8326 12.4651Z" fill="#658B6F"/>
<path d="M78.6936 9.67646C78.6598 9.62884 77.8668 8.50879 76.8427 8.50879C75.8186 8.50879 75.0256 9.62884 74.9918 9.67646L74.9136 9.78935L74.9918 9.90223C75.006 9.92164 75.1429 10.1157 75.3705 10.3414C75.7048 10.673 76.2328 11.0717 76.8427 11.0717C77.8668 11.0717 78.6598 9.95162 78.6936 9.904L78.7718 9.79111L78.6936 9.67646Z" fill="#658B6F"/>
<path d="M89.3614 8.53176C89.301 8.52118 87.8786 8.27424 87.1212 9.02564C86.3637 9.77704 86.6127 11.1881 86.6233 11.2481L86.65 11.3892L86.7922 11.4157C86.8171 11.4192 87.0625 11.4633 87.3985 11.4633C87.8928 11.4633 88.5809 11.3698 89.0325 10.9218C89.7899 10.1704 89.541 8.7593 89.5303 8.69933L89.5037 8.55822L89.3614 8.53176Z" fill="#658B6F"/>
<path d="M84.5112 3.48194C84.4507 3.47664 83.0105 3.36199 82.3278 4.18219C81.6451 5.00061 82.0255 6.38171 82.0416 6.43992L82.0807 6.5775L82.2247 6.58985C82.2496 6.59161 82.4985 6.61101 82.8328 6.58103C83.3252 6.53517 84.0009 6.37819 84.408 5.89136C85.0908 5.07293 84.7103 3.69183 84.6943 3.63363L84.6552 3.49605L84.5112 3.48194Z" fill="#658B6F"/>
<path d="M76.6541 0.0811373C76.6044 0.116414 75.422 0.938371 75.422 2.00198C75.422 3.06558 76.6026 3.88754 76.6541 3.92281L76.7733 4.00395L76.8924 3.92281C76.9119 3.9087 77.1182 3.76583 77.3547 3.53124C77.7049 3.18376 78.1245 2.63696 78.1245 2.00374C78.1245 0.941899 76.9439 0.118178 76.8924 0.0829012L76.7715 0L76.6541 0.0811373Z" fill="#658B6F"/>
<path d="M69.192 3.56472C69.2524 3.56119 70.6961 3.50475 71.3451 4.34964C71.9958 5.19452 71.5602 6.55975 71.5407 6.61795L71.4962 6.75377L71.3522 6.76083C71.3273 6.76259 71.0766 6.77141 70.7441 6.72731C70.2534 6.66205 69.5849 6.47861 69.1973 5.97591C68.5466 5.13102 68.9822 3.7658 69.0017 3.70759L69.0462 3.57178L69.192 3.56472Z" fill="#658B6F"/>
<path d="M64.3257 8.53176C64.3861 8.52118 65.8085 8.27424 66.5659 9.02564C67.3234 9.77704 67.0744 11.1881 67.0638 11.2481L67.0371 11.3892L66.8949 11.4157C66.87 11.4192 66.6246 11.4633 66.2886 11.4633C65.7943 11.4633 65.1062 11.3698 64.6546 10.9218C63.8972 10.1704 64.1461 8.7593 64.1568 8.69933L64.1834 8.55822L64.3257 8.53176Z" fill="#658B6F"/>
<path d="M70.714 12.4316C70.7726 12.421 72.1488 12.1812 72.8831 12.9096C73.6174 13.6381 73.3756 15.0033 73.3649 15.0615L73.34 15.1974L73.2031 15.222C73.18 15.2256 72.94 15.2679 72.6164 15.2679C72.1381 15.2679 71.4714 15.178 71.0358 14.744C70.3015 14.0173 70.5433 12.6503 70.5539 12.5921L70.5788 12.4563L70.714 12.4316Z" fill="#658B6F"/>
<path d="M74.8371 14.4389C74.0886 15.4108 73.5267 16.4656 73.1533 17.6209C72.0705 16.1975 70.4152 15.3049 68.7688 14.5377C68.9164 12.8849 69.6152 11.6432 70.9789 10.5778C71.3291 10.3009 71.7381 10.0275 72.2306 9.74527C73.0271 9.28137 73.9001 8.86863 74.8246 8.43296C75.1002 8.30243 75.3811 8.16838 75.6603 8.03433L75.7047 8.01316C74.9367 7.60042 74.3464 7.13476 74.005 6.83667C72.9204 7.34819 71.8074 7.87911 70.7957 8.52115C68.7048 7.21061 67.2238 5.95474 66.781 4.13797L66.7793 4.12915C66.2708 4.55424 65.78 5.00226 65.3089 5.47144C66.061 7.32878 67.6185 8.597 69.2684 9.67471C68.0541 10.7983 67.3216 12.1423 67.0531 13.7545C64.6492 12.6433 62.6864 11.5003 62.489 8.90391C62.0143 9.61298 61.5787 10.3503 61.184 11.1158C62.2579 13.557 64.8075 14.7123 67.1242 15.76C70.0472 17.0811 72.5719 18.2224 72.579 21.4996C72.579 21.5049 72.579 21.5084 72.579 21.5137V21.7201H72.5808V31.7494H74.3873V21.7183V21.5119V21.482C74.3926 19.233 74.9633 17.3581 76.1243 15.7494C75.6354 15.1233 75.1411 14.6823 74.8371 14.4389Z" fill="#658B6F"/>
<path d="M91.0594 8.90394C90.8602 11.4986 88.8974 12.6415 86.4953 13.7528C86.2819 12.4599 85.7734 11.3486 84.9591 10.3821C84.6426 10.6184 84.079 11.0188 83.4372 11.3892C84.2266 12.2694 84.6586 13.2854 84.7724 14.5395C83.126 15.305 81.4725 16.1992 80.3915 17.6227C79.9185 16.164 79.1487 14.8622 78.0783 13.6893C79.2963 12.6804 80.7115 11.8355 82.0841 11.0206L82.3793 10.8459C82.5215 10.7613 82.662 10.6766 82.806 10.5937C83.2149 10.3485 83.647 10.0875 84.0577 9.82115C85.7877 8.70992 87.4536 7.41172 88.2395 5.47148C87.7701 5.00229 87.2794 4.55427 86.7709 4.12919L86.7691 4.13624C86.3264 5.95478 84.8453 7.21064 82.7544 8.51942C81.7285 7.86679 80.596 7.33058 79.4989 6.81377L79.1807 6.66384C78.9904 6.57389 78.8055 6.48393 78.6171 6.39398C80.6404 5.02522 81.8992 3.38131 82.5037 1.30525C81.9614 1.02833 81.4085 0.776097 80.8431 0.541504C80.1817 3.13261 78.441 4.47137 76.7715 5.43267C75.1038 4.47314 73.3631 3.13261 72.6999 0.541504C72.1345 0.774333 71.5798 1.02833 71.0393 1.30525C71.674 3.48361 73.0271 5.1875 75.2318 6.59682C75.6567 6.86845 76.1279 7.14009 76.6737 7.42759C77.3316 7.77331 77.9894 8.08551 78.7202 8.42946L78.7469 8.44181C79.5469 8.81928 80.3044 9.18087 81.0067 9.56891C79.6305 10.3838 78.105 11.3045 76.7733 12.4352C75.7136 11.5374 74.5437 10.7824 73.5036 10.1492C72.7195 10.5426 72.1274 10.9782 71.8163 11.2305C73.18 12.0436 74.4975 12.855 75.6301 13.8216C76.0105 14.1479 76.3341 14.4566 76.6204 14.7652C78.3539 16.6155 79.1611 18.7586 79.1611 21.5084V21.7148V31.7494H80.9676V21.7183V21.512C80.9676 18.2242 83.4958 17.0812 86.4242 15.7583C88.7409 14.7123 91.2905 13.557 92.3644 11.1158C91.9697 10.3503 91.5341 9.61301 91.0594 8.90394Z" fill="#658B6F"/>
<path d="M2.71498 13.4441C4.05202 13.4053 4.25115 13.1478 4.25115 12.257V1.00893H2.99412C1.79754 1.00893 1.19836 1.56278 0.839207 3.76054H0V0H10.5577V3.7623H9.73978C9.38063 1.56454 8.78145 1.01069 7.56531 1.01069H6.32784V12.257C6.32784 13.1478 6.52697 13.4053 7.86401 13.4441V14.1373H2.71498V13.4441Z" fill="#79767A"/>
<path d="M11.5089 0H14.9813V5.86129C15.4205 4.89117 16.4588 3.80287 18.235 3.80287C19.6716 3.80287 20.5695 4.41669 21.0087 5.40622C21.2878 6.03944 21.3483 6.83141 21.3483 8.23721V12.3152C21.3483 13.206 21.5083 13.4635 22.8453 13.5235V14.1373H20.0112C19.5329 14.1373 19.412 13.9592 19.412 13.4847V8.53353C19.412 7.10834 19.3729 6.65326 19.1916 6.15762C18.9729 5.5244 18.4128 5.04816 17.5754 5.04816C16.0588 5.04816 14.9813 6.19643 14.9813 8.92864V12.3135C14.9813 13.2042 15.1609 13.4617 16.4784 13.5217V14.1355H11.5089V13.5217C12.846 13.4617 13.0451 13.2042 13.0451 12.3135V1.66332C13.0451 0.772569 12.7855 0.760222 11.5089 0.680848V0Z" fill="#79767A"/>
<path d="M31.8045 12.0964C31.0258 13.2253 29.6087 14.3736 27.6334 14.3736C24.8988 14.3736 23.2435 12.3945 23.2435 9.0873C23.2435 5.90001 25.2989 3.80103 28.0139 3.80103C30.3288 3.80103 31.7654 5.02867 31.7654 6.53324C31.7654 8.11718 30.7679 8.51228 28.613 8.98852L26.6181 9.4242C25.8607 9.58294 25.4607 9.93924 25.4607 10.5725C25.4607 11.562 26.3994 12.9872 28.1952 12.9872C29.4327 12.9872 30.4497 12.5921 31.4276 11.7595L31.8045 12.0964ZM27.9925 8.23712C29.2691 7.91963 29.8078 7.42575 29.8078 6.51383C29.8078 5.56312 29.1287 4.69177 27.9712 4.69177C26.1559 4.69177 25.2366 6.53324 25.2366 8.88975V9.12787C25.4162 8.96912 25.7949 8.77157 26.275 8.65339L27.9925 8.23712Z" fill="#79767A"/>
<path d="M4.69037 31.0138C6.40612 31.0138 7.62404 29.9255 7.62404 28.5003C7.62404 27.2127 6.86662 26.4613 5.02996 25.8281L3.71248 25.3536C1.59668 24.6022 0.480108 23.4328 0.480108 21.5331C0.480108 19.4535 2.09629 17.6914 5.0104 17.6914C7.62404 17.6914 9.14065 18.9984 9.14065 20.2049C9.14065 21.0956 8.62148 21.5913 7.84451 21.5913C7.60448 19.7498 6.52702 18.6615 4.94995 18.6615C3.37288 18.6615 2.43589 19.5717 2.43589 20.9775C2.43589 22.0869 3.17375 22.8983 4.65125 23.4134L6.20699 23.9672C8.44191 24.7592 9.56026 25.9268 9.56026 27.8865C9.56026 30.243 7.52447 31.9839 4.63169 31.9839C2.01806 31.9839 0.00183105 30.6575 0.00183105 29.1335C0.00183105 28.2816 0.440992 27.7277 1.31932 27.6678C1.49711 29.3311 2.7737 31.0138 4.69037 31.0138Z" fill="#79767A"/>
<path d="M11.5837 22.5209H10.0475V21.6495H11.5837V19.2137C11.7828 19.1149 12.5224 18.8168 13.5199 18.718V21.6478H16.1549V22.5191H13.5199V28.5374C13.5199 30.2007 14.0391 30.9327 15.177 30.9327C15.5361 30.9327 15.9344 30.8339 16.354 30.6752V31.506C15.8544 31.7229 15.2161 31.9011 14.2986 31.9011C12.5633 31.9011 11.5854 31.0297 11.5854 28.3381V22.5209H11.5837Z" fill="#79767A"/>
<path d="M17.3585 31.1322C18.6956 31.0722 18.8947 30.8147 18.8947 29.9239V23.5088C18.8947 22.6181 18.6351 22.3993 17.3585 22.3217V21.6479H20.8309V29.9239C20.8309 30.8147 21.0301 31.0722 22.3671 31.1322V31.746H17.3585V31.1322ZM19.853 17.293C20.5713 17.293 21.151 17.8662 21.151 18.5806C21.151 19.2932 20.5731 19.8664 19.853 19.8664C19.1329 19.8664 18.5551 19.2932 18.5551 18.5806C18.5569 17.868 19.1347 17.293 19.853 17.293Z" fill="#79767A"/>
<path d="M23.3129 31.1321C24.6499 31.0721 24.849 30.8146 24.849 29.9239V23.5087C24.849 22.618 24.5895 22.3993 23.3129 22.3217V21.6479H26.5061C26.6057 22.0236 26.6252 23.0149 26.6252 23.3906C26.9453 22.4998 27.8432 21.4309 29.2193 21.4309C30.4177 21.4309 31.3156 22.1435 31.3156 23.2318C31.3156 23.925 30.7377 24.4189 29.9981 24.4788C29.8381 23.4699 29.3989 22.7362 28.5615 22.7362C27.5445 22.7362 26.7853 23.8245 26.7853 26.2198V29.9221C26.7853 30.8129 27.0449 31.0704 28.3819 31.1303V31.7442H23.3129V31.1321V31.1321Z" fill="#79767A"/>
<path d="M31.257 17.4128H34.5302V28.7579C34.5302 30.3613 34.8289 30.9751 35.9668 31.0951V31.7089C35.8068 31.7477 35.309 31.8271 34.9498 31.8271C33.1932 31.8271 32.594 31.0157 32.594 28.6204V19.2755C32.594 18.3847 32.3344 18.166 31.257 18.0884V17.4128Z" fill="#79767A"/>
<path d="M36.9625 31.1322C38.2996 31.0722 38.4987 30.8147 38.4987 29.9239V23.5088C38.4987 22.6181 38.2391 22.3993 36.9625 22.3217V21.6479H40.4349V29.9239C40.4349 30.8147 40.6341 31.0722 41.9711 31.1322V31.746H36.9625V31.1322ZM39.457 17.293C40.1753 17.293 40.7532 17.8662 40.7532 18.5806C40.7532 19.2932 40.1753 19.8664 39.457 19.8664C38.7387 19.8664 38.1591 19.2932 38.1591 18.5806C38.1609 17.868 38.7387 17.293 39.457 17.293Z" fill="#79767A"/>
<path d="M42.9152 21.6497H46.1475C46.2471 22.0466 46.288 23.2724 46.288 23.6499C46.7663 22.521 47.8437 21.4133 49.6413 21.4133C51.0779 21.4133 51.9757 22.0272 52.4149 23.0167C52.694 23.6499 52.7545 24.4419 52.7545 25.8477V29.9257C52.7545 30.8164 52.9145 31.074 54.2515 31.1339V31.7478H51.4175C50.9392 31.7478 50.8183 31.5696 50.8183 31.0951V26.1458C50.8183 24.7206 50.7792 24.2655 50.5978 23.7698C50.3791 23.1366 49.819 22.6604 48.9816 22.6604C47.465 22.6604 46.3876 23.8086 46.3876 26.5409V29.9257C46.3876 30.8164 46.5671 31.074 47.8846 31.1339V31.7478H42.9152V31.1339C44.2522 31.074 44.4513 30.8164 44.4513 29.9257V23.5106C44.4513 22.6198 44.1917 22.4011 42.9152 22.3235V21.6497V21.6497Z" fill="#79767A"/>
<path d="M62.6917 22.4805C63.17 22.8968 63.7496 23.6676 63.7496 24.9164C63.7496 27.1723 62.0925 28.243 59.6976 28.4406C57.9623 28.5799 57.6227 28.8568 57.6227 29.1937C57.6227 29.55 57.9427 29.8075 58.8993 29.8675L61.3138 30.0263C63.9078 30.2044 64.8253 31.1146 64.8253 32.5997C64.8253 34.8169 62.0907 35.907 59.2566 35.907C56.7426 35.907 54.8455 34.9562 54.8455 33.4323C54.8455 32.0265 56.0225 31.4321 57.2208 31.1745C56.403 30.9364 55.8642 30.5413 55.8642 29.7881C55.8642 28.9574 56.6021 28.4018 57.9996 28.1248C56.8421 27.8479 55.5442 27.0154 55.5442 24.9181C55.5442 22.6604 57.4004 21.4134 59.6549 21.4134C60.5137 21.4134 61.4311 21.6303 62.089 22.0272C62.5281 21.4733 63.1664 20.8789 64.0838 20.8789C64.7417 20.8789 65.1809 21.2758 65.1809 21.849C65.1809 22.1454 65.0404 22.4223 64.8822 22.6216C64.2688 22.1436 63.3709 22.0448 62.6917 22.4805ZM58.8192 31.4885C57.2031 31.4885 56.6039 32.2011 56.6039 33.1712C56.6039 34.2807 57.7009 34.9933 59.518 34.9933C61.3938 34.9933 63.1309 34.2613 63.1309 33.053C63.1309 32.2417 62.5726 31.7654 60.9546 31.6084C60.0976 31.5291 59.2389 31.4885 58.8192 31.4885ZM59.6585 27.5886C60.9155 27.5886 61.7938 26.6185 61.7938 24.9164C61.7938 23.2143 60.935 22.2635 59.6585 22.2635C58.3605 22.2635 57.5035 23.2143 57.5035 24.9164C57.5035 26.6785 58.3801 27.5886 59.6585 27.5886Z" fill="#79767A"/>
<path d="M0 49.0688C1.33704 49.03 1.53618 48.7724 1.53618 47.8817V37.8242C1.53618 36.9334 1.33704 36.6759 0 36.6353V35.9421H9.53887V39.3675H8.721C8.34229 37.3285 7.74311 36.9916 6.28694 36.9916H3.61286V42.2585H5.74821C6.78655 42.2585 7.00525 41.8616 7.16526 40.7345H7.88357V44.7544H7.16526C7.00525 43.6255 6.78655 43.2304 5.74821 43.2304H3.61286V47.8834C3.61286 48.7742 3.81199 49.0317 5.14903 49.0705V49.7637H0V49.0688Z" fill="#79767A"/>
<path d="M14.023 50C11.1089 50 9.354 47.9204 9.354 44.7138C9.354 41.5071 11.1107 39.4275 14.023 39.4275C16.9353 39.4275 18.6937 41.5071 18.6937 44.7138C18.6937 47.9204 16.9371 50 14.023 50ZM14.023 40.3182C12.1472 40.3182 11.388 42.2973 11.388 44.7138C11.388 47.1302 12.1454 49.1093 14.023 49.1093C15.9005 49.1093 16.658 47.1302 16.658 44.7138C16.658 42.2973 15.8988 40.3182 14.023 40.3182Z" fill="#79767A"/>
<path d="M18.5444 39.6656H22.0168V45.2676C22.0168 46.6928 22.0559 47.1479 22.2373 47.6435C22.456 48.2767 23.0161 48.7124 23.8535 48.7124C25.3701 48.7124 26.4476 47.6029 26.4476 44.8707V41.5247C26.4476 40.6339 26.188 40.4152 24.9505 40.3376V39.6638H28.3838V47.8411C28.3838 48.7318 28.5634 48.9699 29.8613 48.9893V49.5838C29.4026 49.7231 28.8638 49.8007 28.1455 49.8007C27.1676 49.8007 26.5293 49.2275 26.6094 47.8005C26.1311 48.91 24.9327 49.9983 23.1974 49.9983C21.7608 49.9983 20.8629 49.3844 20.4238 48.3949C20.1446 47.7617 20.0842 46.9697 20.0842 45.5639V41.5247C20.0842 40.6339 19.8246 40.4152 18.548 40.3376V39.6656H18.5444Z" fill="#79767A"/>
<path d="M30.8799 39.6656H34.1123C34.2118 40.0624 34.2527 41.2883 34.2527 41.6658C34.731 40.5369 35.8084 39.4292 37.606 39.4292C39.0426 39.4292 39.9405 40.043 40.3796 41.0325C40.6588 41.6658 40.7192 42.4577 40.7192 43.8635V47.9416C40.7192 48.8323 40.8793 49.0898 42.2163 49.1498V49.7636H39.3822C38.9039 49.7636 38.783 49.5855 38.783 49.111V44.1616C38.783 42.7364 38.7439 42.2814 38.5625 41.7857C38.3438 41.1525 37.7838 40.6762 36.9464 40.6762C35.4297 40.6762 34.3523 41.8245 34.3523 44.5567V47.9416C34.3523 48.8323 34.5319 49.0898 35.8493 49.1498V49.7636H30.8799V49.1498C32.2169 49.0898 32.4161 48.8323 32.4161 47.9416V41.5264C32.4161 40.6357 32.1565 40.417 30.8799 40.3394V39.6656Z" fill="#79767A"/>
<path d="M48.2776 35.4287H51.75V47.8427C51.75 48.7335 51.91 48.9716 53.2062 48.991V49.5854C52.767 49.7248 52.1678 49.8024 51.4495 49.8024C50.4716 49.8024 49.8938 49.0492 49.9525 47.9009C49.5133 48.9504 48.4963 49.9999 46.8783 49.9999C44.0638 49.9999 42.6876 47.9009 42.6876 44.7137C42.6876 41.5264 44.0656 39.4274 46.8179 39.4274C48.4341 39.4274 49.4315 40.4363 49.812 41.2494V37.2896C49.812 36.3988 49.5524 36.1801 48.2758 36.1025V35.4287H48.2776ZM47.2784 40.5157C45.4826 40.5157 44.7234 42.3959 44.7234 44.7137C44.7234 47.0314 45.4826 48.9116 47.2784 48.9116C49.0937 48.9116 49.812 47.0314 49.812 44.7137C49.812 42.3959 49.0955 40.5157 47.2784 40.5157Z" fill="#79767A"/>
<path d="M54.5289 41.5847C54.5289 40.417 56.0455 39.4275 58.2609 39.4275C60.8958 39.4275 62.0924 40.6745 62.0924 43.5655V47.8622C62.0924 48.753 62.2524 48.9911 63.5486 49.0105V49.6049C63.1094 49.7231 62.5707 49.8025 61.8524 49.8025C60.8745 49.8025 60.3358 49.2292 60.2967 48.2185C59.5392 49.3862 58.5614 49.9401 56.9434 49.9401C55.2063 49.9401 53.9102 48.8306 53.9102 47.2678C53.9102 45.9008 54.6089 44.9113 57.0839 44.2975L58.78 43.8812C59.797 43.6237 60.158 43.248 60.158 42.2373C60.158 41.1878 59.4788 40.3165 58.1631 40.3165C56.6074 40.3165 56.0668 41.366 55.8873 42.673C55.1476 42.6553 54.5289 42.3767 54.5289 41.5847ZM60.158 44.0999C59.9588 44.2587 59.5588 44.4756 59.0805 44.615L57.7239 45.0119C56.2873 45.4281 55.8677 46.2201 55.8677 47.0121C55.8677 48.1409 56.6465 48.8729 57.6439 48.8729C58.9205 48.8729 60.158 48.0616 60.158 46.1795V44.0999Z" fill="#79767A"/>
<path d="M64.8625 40.537H63.3263V39.6657H64.8625V37.2298C65.0616 37.131 65.8012 36.8329 66.7987 36.7341V39.6639H69.4337V40.5352H66.7987V46.5535C66.7987 48.2168 67.3179 48.9488 68.4558 48.9488C68.8149 48.9488 69.2132 48.8501 69.6328 48.6913V49.5221C69.1332 49.739 68.4949 49.919 67.5774 49.919C65.8421 49.919 64.8642 49.0476 64.8642 46.356V40.537H64.8625Z" fill="#79767A"/>
<path d="M70.9042 49.148C72.2412 49.0881 72.4403 48.8306 72.4403 47.9398V41.5247C72.4403 40.6339 72.1808 40.4152 70.9042 40.3376V39.6638H74.3766V47.9398C74.3766 48.8306 74.5757 49.0881 75.9127 49.148V49.7619H70.9042V49.148ZM73.4005 35.3088C74.1188 35.3088 74.6966 35.8821 74.6966 36.5965C74.6966 37.309 74.1188 37.8841 73.4005 37.8841C72.6822 37.8841 72.1025 37.309 72.1025 36.5965C72.1025 35.8839 72.6804 35.3088 73.4005 35.3088Z" fill="#79767A"/>
<path d="M80.7684 50C77.8543 50 76.0977 47.9204 76.0977 44.7138C76.0977 41.5071 77.8543 39.4275 80.7684 39.4275C83.6825 39.4275 85.4374 41.5071 85.4374 44.7138C85.4374 47.9204 83.6825 50 80.7684 50ZM80.7684 40.3182C78.8926 40.3182 78.1334 42.2973 78.1334 44.7138C78.1334 47.1302 78.8926 49.1093 80.7684 49.1093C82.6442 49.1093 83.4034 47.1302 83.4034 44.7138C83.4034 42.2973 82.6442 40.3182 80.7684 40.3182Z" fill="#79767A"/>
<path d="M86.0774 39.6656H89.3098C89.4093 40.0624 89.4502 41.2883 89.4502 41.6658C89.9285 40.5369 91.006 39.4292 92.8035 39.4292C94.2401 39.4292 95.138 40.043 95.5771 41.0325C95.8563 41.6658 95.9167 42.4577 95.9167 43.8635V47.9416C95.9167 48.8323 96.0768 49.0898 97.4138 49.1498V49.7636H94.5797C94.1014 49.7636 93.9805 49.5855 93.9805 49.111V44.1616C93.9805 42.7364 93.9414 42.2814 93.7618 41.7857C93.5413 41.1525 92.9831 40.6762 92.1456 40.6762C90.629 40.6762 89.5516 41.8245 89.5516 44.5567V47.9416C89.5516 48.8323 89.7311 49.0898 91.0486 49.1498V49.7636H86.0792V49.1498C87.4162 49.0898 87.6153 48.8323 87.6153 47.9416V41.5264C87.6153 40.6357 87.3558 40.417 86.0792 40.3394V39.6656H86.0774Z" fill="#79767A"/>
</svg>
