<?xml version="1.0" encoding="utf-8"?>
<!-- Generator: Adobe Illustrator 18.0.0, SVG Export Plug-In . SVG Version: 6.00 Build 0)  -->
<!DOCTYPE svg PUBLIC "-//W3C//DTD SVG 1.1//EN" "http://www.w3.org/Graphics/SVG/1.1/DTD/svg11.dtd">
<svg version="1.1" id="Слой_1" xmlns="http://www.w3.org/2000/svg" xmlns:xlink="http://www.w3.org/1999/xlink" x="0px" y="0px"
	 viewBox="0 0 768 1024" enable-background="new 0 0 768 1024" xml:space="preserve">
<path fill="none" stroke="#000000" stroke-width="2" stroke-linecap="round" stroke-linejoin="round" stroke-miterlimit="10" d="
	M424.2,954.3v71.7h-37.6v-72.5c6.6,1.8,13.3,2.7,20.3,2.7C412.8,956.2,418.7,955.5,424.2,954.3z M529.6,556.3c0,0,1.4,8.9-4.1,7.2
	c0,0-5.3,6.2-8.3,4.9c0,0-0.3,2.4-13.3-2.1c0,0-4.1-9-3.5-11.7l0.9-2.7c0,0-2.1-4.2,1.5-6.3l2.4-1.8c0,0-0.9-6.8,0.6-12.8
	c0,0-7.1-18.2-12.2-19.6c0,0-15.8,1.8-18.5,0.3c0,0,8.7,31.9,12.9,66.5c0,0,3.6,4.9,0.3,7.8c0,0,0.7,27.4-2,40.8
	c0,0-6.5,18-9.1,21.9c0,0-0.1,22.5-10.5,41.8c0,0-4.2,8.2-5.6,17.6c0,0-4.9,25.8-3.9,33.3c0,0-5.6,2.3-9.5,0l-1,2.9
	c0,0-6.5-0.3-8.8-2c0,0-1.6,13.7,1,15.7c0,0-2,2.6-3.6,2.9c0,0-3.3,4.2-2.9,11.1c0,0,1.2,16.1,8.6,26.6c0,0-0.3-0.1-0.7-0.3
	c27.2,12.5,46.1,40.2,46.1,72.5c0,44-35.2,79.6-78.6,79.6s-78.6-35.6-78.6-79.6c0-35.1,22.4-64.8,53.4-75.4c-0.5-1-0.5-2.4,0.6-4.4
	l4.2-2.6c0,0,1-7.2,3-11.8l-5.9-29.8c0,0-12.4-1.2-15.7-2.2c0,0-2.6-1.3-10.8-1.6l-0.3,3.3l-14.4-1.6l-0.3-34.3
	c0,0-11.8-30.7-12.8-61.4l-1-29.4c0,0-5.9-20.9-4.6-51.9c0,0-0.3-69.9,3.9-84.9l4.8-44.1v-12.9l-0.6-0.5c0,0-6.6-28.1-7.9-50
	c0,0-9.3-23.5-9-36.3l-0.3-3c-25.4-8.6-59-65.2-59-65.2c-8.9-1.7-2.1-25-2.1-25c1.1-7.3,1.4-15.1,1.4-15.1
	c-0.7-5.5,4.5-14.8,4.5-14.8c-2.7-12.7,2.4-63.2,2.4-63.2c-0.3-4.8-1.4-11.3-1.4-11.3c-2.7-4.8-4.8-22.4-4.8-22.4
	c-2.2-5.2-2.4-9.2-2-11.9l-54.4-56.6c-5.6-4.7-21.4-7.7-21.4-7.7v-0.3c-4.4,0.7-7.9-0.1-10.6-2.9c-5.9-6.1-2-18.7,7.8-28.3
	c9.8-9.6,22.6-12.4,28.5-6.3c3.1,3.2,3.7,8.2,2.1,13.7l0,0c0,13.8,6.9,23.7,6.9,23.7l52.1,58.8c4.1,0,7.4,0.9,4.1,4.7l0.5,0.5
	c3.7-1.9,10.1-4.3,7.5,3.8c0,0,5.7-3.2,7.8,3.7c0,0,5.2-0.5,6.5,5.1c0,0,3.8,9.6,2.6,12.8c0,0-0.3,0.5-0.7,1.3l83.9,94.7
	c1.9-3.1,4.9-6.1,9.8-7.5l4.6-4.4c0,0,4.5-9.6,16.8-3.8c0,0,10.6-4.2,17.5,6.6c0,0,3.8-3.2,10,11.2c0,0,11.3,6.5,12,27.5
	c0,0,2.1,21-2.4,24.8c0,0-3.8,17.9-8.9,17.2c0,0-2.1,6.3-3.4,6.3l5.8,6.1h3.3l7.7,4.9v2.8l20.1,10.9c0,0,29.7,4.1,24.2,34
	c0,0-0.2,35.7,0.8,40.2c0,0,1.1,9.6,0.1,10c0,0,0.9,17.9,3.2,19.9c0,0,10.6,15.6,12.6,44.2c0,0,2.1,14.5,3.8,17.3c0,0,3.1,8.9,0,10
	c0,0,6.2,15.8,7.9,16.8c0,0,4.1,7.6,6.2,20.3C529.6,543.2,534.8,557,529.6,556.3z M380,278.9c0,0-6.7-0.7-5.3-15.5l-1.2-13.7
	c0,0-0.2-9.6,1.2-11c0,0,0-2.2,0.8-5l-87.3-91.4c-1.1,1.6-2.4,3.3-3.7,4.8c0,0-2.4,18.1,0.3,40.1c0,0,15.1,11.4,12,31.3
	c0,0,3.3,7.8,4.5,17.8c0,0,2.7,0,5.1,17.2c0,0,4.8,3.8,9.3,8.6l17.1,10.6c0,0,4.7-3.4,18.5,9.6c0,0,5.6,0.7,16.9,11.7l11.8-1.7
	V278.9z"/>
</svg>
