<svg width="375" height="467" viewBox="0 0 375 467" fill="none" xmlns="http://www.w3.org/2000/svg">
<path d="M436.588 312.81C435.499 311.262 410.108 275.041 377.265 275.041C344.423 275.041 318.975 311.262 317.943 312.81L315.421 316.42L317.943 320.088C318.401 320.719 322.815 326.966 330.036 334.244C340.755 344.962 357.663 357.8 377.265 357.8C410.108 357.8 435.556 321.579 436.588 320.031L439.109 316.42L436.588 312.81Z" fill="white" fill-opacity="0.05"/>
<path d="M371.189 2.63636C369.584 3.72529 331.697 30.3181 331.697 64.7054C331.697 99.0354 369.584 125.628 371.189 126.775L374.971 129.411L378.754 126.775C379.385 126.316 385.976 121.731 393.599 114.109C404.833 102.875 418.245 85.1659 418.245 64.7054C418.245 30.3755 380.359 3.7826 378.754 2.63636L374.971 0L371.189 2.63636Z" fill="white" fill-opacity="0.05"/>
<path d="M131.949 115.197C133.898 115.083 180.153 113.249 201.016 140.587C221.879 167.867 207.894 211.998 207.263 213.889L205.831 218.302L201.188 218.531C200.385 218.588 192.361 218.875 181.7 217.442C165.995 215.322 144.559 209.419 132.121 193.142C111.258 165.861 125.243 121.731 125.816 119.84L127.249 115.427L131.949 115.197Z" fill="white" fill-opacity="0.05"/>
<path d="M-24.1235 275.786C-22.1747 275.442 23.3919 267.418 47.6942 291.776C71.9964 316.076 64.0294 361.639 63.6282 363.588L62.8257 368.116L58.2978 368.975C57.4953 369.09 49.5856 370.523 38.8674 370.523C22.9907 370.523 0.981035 367.485 -13.5201 353.043C-37.8223 328.742 -29.8552 283.179 -29.5113 281.23L-28.7089 276.703L-24.1235 275.786Z" fill="white" fill-opacity="0.05"/>
<path d="M180.726 401.816C182.618 401.472 226.752 393.735 250.251 417.29C273.751 440.788 266.071 484.919 265.727 486.81L264.925 491.223L260.511 492.025C259.766 492.14 252.086 493.516 241.711 493.516C226.35 493.516 205.029 490.593 190.986 476.608C167.486 453.11 175.166 408.98 175.51 407.089L176.313 402.676L180.726 401.816Z" fill="white" fill-opacity="0.05"/>
<path d="M312.898 466.693C288.883 498.1 270.885 532.201 258.906 569.511C224.172 523.489 171.097 494.661 118.309 469.845C123.066 416.43 145.477 376.311 189.152 341.867C200.386 332.869 213.454 324.1 229.274 314.93C254.837 299.914 282.807 286.618 312.497 272.519C321.324 268.278 330.323 263.979 339.264 259.624L340.697 258.936C316.051 245.582 297.136 230.509 286.189 220.938C251.455 237.444 215.689 254.58 183.248 275.385C116.188 233.031 68.7299 192.454 54.5154 133.709L54.4581 133.422C38.1229 147.177 22.4181 161.677 7.34386 176.808C31.4741 236.814 81.3968 277.792 134.3 312.638C95.382 348.916 71.8823 392.416 63.2275 444.513C-13.8059 408.578 -76.7395 371.669 -83.159 287.764C-98.3479 310.689 -112.333 334.531 -125 359.29C-90.6101 438.209 -8.81932 475.519 65.4629 509.39C159.175 552.088 240.106 588.997 240.393 694.852C240.393 695.024 240.393 695.139 240.393 695.311V702.016H240.45V1026.17H298.397V702.016V695.311V694.337C298.569 621.665 316.91 561.029 354.109 509.046C338.519 488.815 322.699 474.544 312.898 466.693Z" fill="white" fill-opacity="0.05"/>
<path d="M833.101 287.822C826.682 371.67 763.806 408.579 686.772 444.514C679.951 402.733 663.616 366.799 637.537 335.621C627.392 343.301 609.338 356.196 588.761 368.174C614.038 396.601 627.908 429.441 631.576 469.96C578.788 494.719 525.77 523.605 491.094 569.626C475.905 522.458 451.259 480.391 416.926 442.508C455.958 409.897 501.353 382.617 545.372 356.253L554.83 350.579C559.358 347.828 563.943 345.135 568.471 342.384C581.539 334.474 595.467 325.992 608.592 317.395C664.075 281.518 717.494 239.565 742.713 176.809C727.639 161.678 711.934 147.178 695.656 133.423L695.599 133.653C681.385 192.398 633.869 233.032 566.866 275.328C533.966 254.237 497.685 236.929 462.493 220.194L452.29 215.322C446.215 212.399 440.254 209.534 434.236 206.611C499.118 162.366 539.469 109.238 558.899 42.1823C541.532 33.2416 523.764 25.046 505.652 17.5381C484.445 101.271 428.619 144.542 375.142 175.605C321.666 144.599 265.84 101.271 244.575 17.5381C226.463 25.1033 208.695 33.2989 191.328 42.1823C211.675 112.619 255.064 167.639 325.735 213.202C339.377 222.028 354.508 230.797 371.99 240.081C393.082 251.257 414.175 261.344 437.56 272.463L438.42 272.864C464.04 285.071 488.342 296.763 510.868 309.314C466.734 335.678 417.843 365.366 375.085 401.931C341.154 372.931 303.611 348.516 270.253 328.055C245.091 340.779 226.119 354.878 216.146 362.959C259.879 389.265 302.121 415.457 338.402 446.749C350.611 457.295 360.985 467.267 370.156 477.239C425.753 537.016 451.66 606.306 451.66 695.197V701.903V1026.06H509.607V701.903V695.197C509.607 588.941 590.653 551.974 684.537 509.219C758.819 475.405 840.553 438.095 875 359.176C862.275 334.589 848.29 310.69 833.101 287.822Z" fill="white" fill-opacity="0.05"/>
</svg>
