<svg width="98" height="50" viewBox="0 0 98 50" fill="none" xmlns="http://www.w3.org/2000/svg">
<path d="M82.8324 12.4651C82.7755 12.4545 81.4153 12.2182 80.6917 12.9378C79.9681 13.6557 80.2046 15.0051 80.2152 15.0615L80.2401 15.1956L80.3752 15.2203C80.3983 15.2238 80.6348 15.2661 80.9548 15.2661C81.4278 15.2661 82.0839 15.1762 82.5159 14.7493C83.2395 14.0314 83.0031 12.6821 82.9924 12.6256L82.9675 12.4916L82.8324 12.4651Z" fill="white"/>
<path d="M78.6931 9.67646C78.6593 9.62884 77.8663 8.50879 76.8422 8.50879C75.8181 8.50879 75.0251 9.62884 74.9913 9.67646L74.9131 9.78935L74.9913 9.90223C75.0055 9.92164 75.1424 10.1157 75.37 10.3414C75.7043 10.673 76.2323 11.0717 76.8422 11.0717C77.8663 11.0717 78.6593 9.95162 78.6931 9.904L78.7713 9.79111L78.6931 9.67646Z" fill="white"/>
<path d="M89.3608 8.53176C89.3003 8.52118 87.878 8.27424 87.1205 9.02564C86.3631 9.77704 86.612 11.1881 86.6227 11.2481L86.6494 11.3892L86.7916 11.4157C86.8165 11.4192 87.0619 11.4633 87.3979 11.4633C87.8922 11.4633 88.5803 11.3698 89.0319 10.9218C89.7893 10.1704 89.5404 8.7593 89.5297 8.69933L89.503 8.55822L89.3608 8.53176Z" fill="white"/>
<path d="M84.5105 3.48194C84.4501 3.47664 83.0099 3.36199 82.3272 4.18219C81.6445 5.00061 82.0249 6.38171 82.0409 6.43992L82.0801 6.5775L82.2241 6.58985C82.249 6.59161 82.4979 6.61101 82.8321 6.58103C83.3246 6.53517 84.0003 6.37819 84.4074 5.89136C85.0902 5.07293 84.7097 3.69183 84.6937 3.63363L84.6546 3.49605L84.5105 3.48194Z" fill="white"/>
<path d="M76.654 0.0811373C76.6042 0.116414 75.4219 0.938371 75.4219 2.00198C75.4219 3.06558 76.6025 3.88754 76.654 3.92281L76.7731 4.00395L76.8923 3.92281C76.9118 3.9087 77.1181 3.76583 77.3545 3.53124C77.7048 3.18376 78.1244 2.63696 78.1244 2.00374C78.1244 0.941899 76.9438 0.118178 76.8923 0.0829012L76.7714 0L76.654 0.0811373Z" fill="white"/>
<path d="M69.1919 3.56472C69.2523 3.56119 70.696 3.50475 71.345 4.34964C71.9957 5.19452 71.5601 6.55975 71.5406 6.61795L71.4961 6.75377L71.3521 6.76083C71.3272 6.76259 71.0765 6.77141 70.744 6.72731C70.2533 6.66205 69.5848 6.47861 69.1972 5.97591C68.5464 5.13102 68.982 3.7658 69.0016 3.70759L69.0461 3.57178L69.1919 3.56472Z" fill="white"/>
<path d="M64.3258 8.53176C64.3863 8.52118 65.8086 8.27424 66.5661 9.02564C67.3235 9.77704 67.0746 11.1881 67.0639 11.2481L67.0372 11.3892L66.895 11.4157C66.8701 11.4192 66.6247 11.4633 66.2887 11.4633C65.7944 11.4633 65.1063 11.3698 64.6547 10.9218C63.8973 10.1704 64.1462 8.7593 64.1569 8.69933L64.1836 8.55822L64.3258 8.53176Z" fill="white"/>
<path d="M70.7134 12.4316C70.772 12.421 72.1482 12.1812 72.8825 12.9096C73.6168 13.6381 73.375 15.0033 73.3643 15.0615L73.3394 15.1974L73.2025 15.222C73.1794 15.2256 72.9394 15.2679 72.6158 15.2679C72.1375 15.2679 71.4708 15.178 71.0352 14.744C70.3009 14.0173 70.5427 12.6503 70.5533 12.5921L70.5782 12.4563L70.7134 12.4316Z" fill="white"/>
<path d="M74.8367 14.4389C74.0882 15.4108 73.5263 16.4656 73.153 17.6209C72.0702 16.1975 70.4149 15.3049 68.7685 14.5377C68.916 12.8849 69.6148 11.6432 70.9785 10.5778C71.3288 10.3009 71.7377 10.0275 72.2302 9.74527C73.0267 9.28137 73.8997 8.86863 74.8243 8.43296C75.0999 8.30243 75.3808 8.16838 75.6599 8.03433L75.7044 8.01316C74.9363 7.60042 74.346 7.13476 74.0046 6.83667C72.9201 7.34819 71.807 7.87911 70.7954 8.52115C68.7045 7.21061 67.2234 5.95474 66.7807 4.13797L66.7789 4.12915C66.2704 4.55424 65.7797 5.00226 65.3085 5.47144C66.0606 7.32878 67.6181 8.597 69.2681 9.67471C68.0537 10.7983 67.3212 12.1423 67.0527 13.7545C64.6489 12.6433 62.686 11.5003 62.4886 8.90391C62.0139 9.61298 61.5783 10.3503 61.1836 11.1158C62.2575 13.557 64.8071 14.7123 67.1238 15.76C70.0468 17.0811 72.5716 18.2224 72.5787 21.4996C72.5787 21.5049 72.5787 21.5084 72.5787 21.5137V21.7201H72.5805V31.7494H74.3869V21.7183V21.5119V21.482C74.3922 19.233 74.963 17.3581 76.124 15.7494C75.635 15.1233 75.1408 14.6823 74.8367 14.4389Z" fill="white"/>
<path d="M91.0591 8.90394C90.86 11.4986 88.8971 12.6416 86.4951 13.7528C86.2817 12.4599 85.7732 11.3486 84.9589 10.3821C84.6424 10.6184 84.0788 11.0188 83.4369 11.3892C84.2264 12.2694 84.6584 13.2854 84.7722 14.5395C83.1258 15.305 81.4723 16.1992 80.3912 17.6227C79.9183 16.164 79.1484 14.8622 78.0781 13.6893C79.296 12.6804 80.7113 11.8355 82.0839 11.0206L82.379 10.8459C82.5213 10.7613 82.6617 10.6766 82.8057 10.5937C83.2147 10.3485 83.6467 10.0875 84.0574 9.82115C85.7874 8.70992 87.4534 7.41172 88.2393 5.47148C87.7699 5.00229 87.2791 4.55427 86.7706 4.12919L86.7689 4.13624C86.3261 5.95478 84.8451 7.21064 82.7542 8.51942C81.7283 7.86679 80.5957 7.33058 79.4987 6.81377L79.1804 6.66384C78.9902 6.57389 78.8053 6.48393 78.6168 6.39398C80.6402 5.02522 81.899 3.38131 82.5035 1.30525C81.9612 1.02833 81.4083 0.776097 80.8429 0.541504C80.1814 3.13261 78.4408 4.47137 76.7713 5.43267C75.1035 4.47314 73.3629 3.13261 72.6997 0.541504C72.1343 0.774333 71.5796 1.02833 71.0391 1.30525C71.6738 3.48361 73.0268 5.1875 75.2315 6.59682C75.6565 6.86845 76.1276 7.14009 76.6735 7.42759C77.3313 7.77331 77.9892 8.08551 78.7199 8.42946L78.7466 8.44181C79.5467 8.81928 80.3041 9.18087 81.0064 9.56891C79.6303 10.3838 78.1048 11.3045 76.7731 12.4352C75.7134 11.5374 74.5435 10.7824 73.5033 10.1492C72.7193 10.5426 72.1272 10.9782 71.816 11.2305C73.1798 12.0436 74.4972 12.855 75.6298 13.8216C76.0103 14.1479 76.3339 14.4566 76.6201 14.7652C78.3537 16.6155 79.1609 18.7586 79.1609 21.5084V21.7148V31.7494H80.9673V21.7183V21.512C80.9673 18.2242 83.4956 17.0812 86.4239 15.7583C88.7406 14.7123 91.2903 13.557 92.3642 11.1158C91.9695 10.3503 91.5339 9.61301 91.0591 8.90394Z" fill="white"/>
<path d="M2.71498 13.4441C4.05202 13.4053 4.25115 13.1478 4.25115 12.257V1.00893H2.99412C1.79754 1.00893 1.19836 1.56278 0.839207 3.76054H0V0H10.5577V3.7623H9.73978C9.38063 1.56454 8.78145 1.01069 7.56531 1.01069H6.32784V12.257C6.32784 13.1478 6.52697 13.4053 7.86401 13.4441V14.1373H2.71498V13.4441Z" fill="white"/>
<path d="M11.5088 0H14.9812V5.86129C15.4203 4.89117 16.4587 3.80287 18.2349 3.80287C19.6715 3.80287 20.5694 4.41669 21.0085 5.40622C21.2877 6.03944 21.3481 6.83141 21.3481 8.23721V12.3152C21.3481 13.206 21.5081 13.4635 22.8452 13.5235V14.1373H20.0111C19.5328 14.1373 19.4119 13.9592 19.4119 13.4847V8.53354C19.4119 7.10834 19.3728 6.65326 19.1914 6.15762C18.9727 5.5244 18.4127 5.04816 17.5753 5.04816C16.0586 5.04816 14.9812 6.19643 14.9812 8.92864V12.3135C14.9812 13.2042 15.1608 13.4617 16.4782 13.5217V14.1355H11.5088V13.5217C12.8458 13.4617 13.045 13.2042 13.045 12.3135V1.66332C13.045 0.772569 12.7854 0.760222 11.5088 0.680848V0Z" fill="white"/>
<path d="M31.8041 12.0964C31.0254 13.2253 29.6083 14.3736 27.633 14.3736C24.8985 14.3736 23.2432 12.3945 23.2432 9.0873C23.2432 5.90001 25.2985 3.80103 28.0135 3.80103C30.3284 3.80103 31.765 5.02867 31.765 6.53324C31.765 8.11718 30.7676 8.51228 28.6127 8.98852L26.6178 9.4242C25.8604 9.58294 25.4603 9.93924 25.4603 10.5725C25.4603 11.562 26.3991 12.9872 28.1948 12.9872C29.4323 12.9872 30.4493 12.5921 31.4272 11.7595L31.8041 12.0964ZM27.9922 8.23712C29.2687 7.91963 29.8075 7.42575 29.8075 6.51383C29.8075 5.56312 29.1283 4.69177 27.9708 4.69177C26.1555 4.69177 25.2363 6.53324 25.2363 8.88975V9.12787C25.4159 8.96912 25.7946 8.77157 26.2746 8.65339L27.9922 8.23712Z" fill="white"/>
<path d="M4.69049 31.0138C6.40624 31.0138 7.62416 29.9255 7.62416 28.5003C7.62416 27.2127 6.86674 26.4613 5.03008 25.8281L3.7126 25.3536C1.5968 24.6022 0.48023 23.4328 0.48023 21.5331C0.48023 19.4535 2.09642 17.6914 5.01053 17.6914C7.62416 17.6914 9.14078 18.9984 9.14078 20.2049C9.14078 21.0956 8.62161 21.5913 7.84463 21.5913C7.6046 19.7498 6.52714 18.6615 4.95007 18.6615C3.37301 18.6615 2.43601 19.5717 2.43601 20.9775C2.43601 22.0869 3.17387 22.8983 4.65137 23.4134L6.20711 23.9672C8.44203 24.7592 9.56038 25.9268 9.56038 27.8865C9.56038 30.243 7.52459 31.9839 4.63182 31.9839C2.01818 31.9839 0.00195312 30.6575 0.00195312 29.1335C0.00195312 28.2816 0.441114 27.7277 1.31944 27.6678C1.49724 29.3311 2.77383 31.0138 4.69049 31.0138Z" fill="white"/>
<path d="M11.584 22.5209H10.0479V21.6495H11.584V19.2137C11.7832 19.1149 12.5228 18.8168 13.5203 18.718V21.6478H16.1552V22.5191H13.5203V28.5374C13.5203 30.2007 14.0394 30.9327 15.1773 30.9327C15.5365 30.9327 15.9348 30.8339 16.3544 30.6752V31.506C15.8547 31.7229 15.2164 31.9011 14.299 31.9011C12.5637 31.9011 11.5858 31.0297 11.5858 28.3381V22.5209H11.584Z" fill="white"/>
<path d="M17.3584 31.1322C18.6954 31.0722 18.8946 30.8147 18.8946 29.9239V23.5088C18.8946 22.6181 18.635 22.3993 17.3584 22.3217V21.6479H20.8308V29.9239C20.8308 30.8147 21.0299 31.0722 22.367 31.1322V31.746H17.3584V31.1322ZM19.8529 17.293C20.5712 17.293 21.1508 17.8662 21.1508 18.5806C21.1508 19.2932 20.573 19.8664 19.8529 19.8664C19.1328 19.8664 18.555 19.2932 18.555 18.5806C18.5568 17.868 19.1346 17.293 19.8529 17.293Z" fill="white"/>
<path d="M23.3135 31.1321C24.6505 31.0721 24.8497 30.8146 24.8497 29.9239V23.5087C24.8497 22.618 24.5901 22.3993 23.3135 22.3217V21.6479H26.5067C26.6063 22.0236 26.6259 23.0149 26.6259 23.3906C26.9459 22.4998 27.8438 21.4309 29.2199 21.4309C30.4183 21.4309 31.3162 22.1435 31.3162 23.2318C31.3162 23.925 30.7383 24.4189 29.9987 24.4788C29.8387 23.4699 29.3995 22.7362 28.5621 22.7362C27.5451 22.7362 26.7859 23.8245 26.7859 26.2198V29.9221C26.7859 30.8129 27.0455 31.0704 28.3825 31.1303V31.7442H23.3135V31.1321Z" fill="white"/>
<path d="M31.2568 17.4128H34.5301V28.7579C34.5301 30.3613 34.8288 30.9751 35.9667 31.0951V31.7089C35.8067 31.7477 35.3089 31.8271 34.9497 31.8271C33.1931 31.8271 32.5939 31.0157 32.5939 28.6204V19.2755C32.5939 18.3847 32.3343 18.166 31.2568 18.0884V17.4128Z" fill="white"/>
<path d="M36.9629 31.1322C38.2999 31.0722 38.4991 30.8147 38.4991 29.9239V23.5088C38.4991 22.6181 38.2395 22.3993 36.9629 22.3217V21.6479H40.4353V29.9239C40.4353 30.8147 40.6344 31.0722 41.9715 31.1322V31.746H36.9629V31.1322ZM39.4574 17.293C40.1757 17.293 40.7535 17.8662 40.7535 18.5806C40.7535 19.2932 40.1757 19.8664 39.4574 19.8664C38.7391 19.8664 38.1595 19.2932 38.1595 18.5806C38.1612 17.868 38.7391 17.293 39.4574 17.293Z" fill="white"/>
<path d="M42.915 21.6497H46.1474C46.247 22.0466 46.2879 23.2724 46.2879 23.6499C46.7661 22.521 47.8436 21.4133 49.6411 21.4133C51.0777 21.4133 51.9756 22.0272 52.4148 23.0167C52.6939 23.6499 52.7544 24.4419 52.7544 25.8477V29.9257C52.7544 30.8164 52.9144 31.074 54.2514 31.1339V31.7478H51.4173C50.9391 31.7478 50.8182 31.5696 50.8182 31.0951V26.1458C50.8182 24.7206 50.779 24.2655 50.5977 23.7698C50.379 23.1366 49.8189 22.6604 48.9815 22.6604C47.4649 22.6604 46.3874 23.8086 46.3874 26.5409V29.9257C46.3874 30.8164 46.567 31.074 47.8845 31.1339V31.7478H42.915V31.1339C44.2521 31.074 44.4512 30.8164 44.4512 29.9257V23.5106C44.4512 22.6198 44.1916 22.4011 42.915 22.3235V21.6497Z" fill="white"/>
<path d="M62.6919 22.4805C63.1702 22.8968 63.7498 23.6676 63.7498 24.9164C63.7498 27.1723 62.0928 28.243 59.6978 28.4406C57.9625 28.5799 57.6229 28.8568 57.6229 29.1937C57.6229 29.55 57.9429 29.8075 58.8995 29.8675L61.314 30.0263C63.9081 30.2044 64.8255 31.1146 64.8255 32.5997C64.8255 34.8169 62.091 35.907 59.2569 35.907C56.7428 35.907 54.8457 34.9562 54.8457 33.4323C54.8457 32.0265 56.0227 31.4321 57.2211 31.1745C56.4032 30.9364 55.8645 30.5413 55.8645 29.7881C55.8645 28.9574 56.6023 28.4018 57.9998 28.1248C56.8424 27.8479 55.5444 27.0154 55.5444 24.9181C55.5444 22.6604 57.4007 21.4134 59.6551 21.4134C60.5139 21.4134 61.4313 21.6303 62.0892 22.0272C62.5284 21.4733 63.1667 20.8789 64.0841 20.8789C64.742 20.8789 65.1811 21.2758 65.1811 21.849C65.1811 22.1454 65.0407 22.4223 64.8824 22.6216C64.269 22.1436 63.3711 22.0448 62.6919 22.4805ZM58.8195 31.4885C57.2033 31.4885 56.6041 32.2011 56.6041 33.1712C56.6041 34.2807 57.7011 34.9933 59.5182 34.9933C61.394 34.9933 63.1311 34.2613 63.1311 33.053C63.1311 32.2417 62.5728 31.7654 60.9548 31.6084C60.0979 31.5291 59.2391 31.4885 58.8195 31.4885ZM59.6587 27.5886C60.9157 27.5886 61.7941 26.6185 61.7941 24.9164C61.7941 23.2143 60.9353 22.2635 59.6587 22.2635C58.3608 22.2635 57.5038 23.2143 57.5038 24.9164C57.5038 26.6785 58.3803 27.5886 59.6587 27.5886Z" fill="white"/>
<path d="M0 49.0688C1.33704 49.03 1.53618 48.7724 1.53618 47.8817V37.8242C1.53618 36.9334 1.33704 36.6759 0 36.6353V35.9421H9.53887V39.3675H8.721C8.34229 37.3285 7.74311 36.9916 6.28694 36.9916H3.61286V42.2585H5.74821C6.78655 42.2585 7.00525 41.8616 7.16526 40.7345H7.88357V44.7544H7.16526C7.00525 43.6255 6.78655 43.2304 5.74821 43.2304H3.61286V47.8834C3.61286 48.7742 3.81199 49.0317 5.14903 49.0705V49.7637H0V49.0688Z" fill="white"/>
<path d="M14.0225 50C11.1084 50 9.35352 47.9205 9.35352 44.7138C9.35352 41.5071 11.1102 39.4275 14.0225 39.4275C16.9348 39.4275 18.6933 41.5071 18.6933 44.7138C18.6933 47.9205 16.9366 50 14.0225 50ZM14.0225 40.3182C12.1467 40.3182 11.3875 42.2973 11.3875 44.7138C11.3875 47.1302 12.1449 49.1093 14.0225 49.1093C15.9 49.1093 16.6575 47.1302 16.6575 44.7138C16.6575 42.2973 15.8983 40.3182 14.0225 40.3182Z" fill="white"/>
<path d="M18.5439 39.6656H22.0163V45.2676C22.0163 46.6928 22.0555 47.1479 22.2368 47.6435C22.4555 48.2767 23.0156 48.7124 23.853 48.7124C25.3696 48.7124 26.4471 47.6029 26.4471 44.8707V41.5247C26.4471 40.6339 26.1875 40.4152 24.95 40.3376V39.6638H28.3833V47.8411C28.3833 48.7318 28.5629 48.9699 29.8608 48.9893V49.5838C29.4021 49.7231 28.8633 49.8007 28.145 49.8007C27.1672 49.8007 26.5289 49.2275 26.6089 47.8005C26.1306 48.91 24.9322 49.9983 23.1969 49.9983C21.7603 49.9983 20.8624 49.3844 20.4233 48.3949C20.1441 47.7617 20.0837 46.9697 20.0837 45.5639V41.5247C20.0837 40.6339 19.8241 40.4152 18.5475 40.3376V39.6656H18.5439Z" fill="white"/>
<path d="M30.8799 39.6656H34.1123C34.2118 40.0624 34.2527 41.2883 34.2527 41.6658C34.731 40.5369 35.8084 39.4292 37.606 39.4292C39.0426 39.4292 39.9405 40.043 40.3796 41.0325C40.6588 41.6658 40.7192 42.4577 40.7192 43.8635V47.9416C40.7192 48.8323 40.8792 49.0898 42.2163 49.1498V49.7636H39.3822C38.9039 49.7636 38.783 49.5855 38.783 49.111V44.1616C38.783 42.7364 38.7439 42.2814 38.5625 41.7857C38.3438 41.1525 37.7838 40.6762 36.9464 40.6762C35.4297 40.6762 34.3523 41.8245 34.3523 44.5567V47.9416C34.3523 48.8323 34.5319 49.0898 35.8493 49.1498V49.7636H30.8799V49.1498C32.2169 49.0898 32.4161 48.8323 32.4161 47.9416V41.5264C32.4161 40.6357 32.1565 40.417 30.8799 40.3394V39.6656Z" fill="white"/>
<path d="M48.2775 35.4287H51.7499V47.8427C51.7499 48.7335 51.9099 48.9716 53.206 48.991V49.5854C52.7669 49.7248 52.1677 49.8024 51.4494 49.8024C50.4715 49.8024 49.8937 49.0492 49.9523 47.9009C49.5132 48.9504 48.4962 49.9999 46.8782 49.9999C44.0637 49.9999 42.6875 47.9009 42.6875 44.7137C42.6875 41.5264 44.0654 39.4274 46.8178 39.4274C48.4339 39.4274 49.4314 40.4363 49.8119 41.2494V37.2896C49.8119 36.3988 49.5523 36.1801 48.2757 36.1025V35.4287H48.2775ZM47.2782 40.5157C45.4825 40.5157 44.7233 42.3959 44.7233 44.7137C44.7233 47.0314 45.4825 48.9116 47.2782 48.9116C49.0936 48.9116 49.8119 47.0314 49.8119 44.7137C49.8119 42.3959 49.0953 40.5157 47.2782 40.5157Z" fill="white"/>
<path d="M54.5289 41.5847C54.5289 40.417 56.0455 39.4275 58.2609 39.4275C60.8958 39.4275 62.0924 40.6745 62.0924 43.5655V47.8622C62.0924 48.753 62.2525 48.9911 63.5486 49.0105V49.6049C63.1094 49.7231 62.5707 49.8025 61.8524 49.8025C60.8745 49.8025 60.3358 49.2292 60.2967 48.2185C59.5392 49.3862 58.5614 49.9401 56.9434 49.9401C55.2063 49.9401 53.9102 48.8306 53.9102 47.2678C53.9102 45.9008 54.6089 44.9113 57.0839 44.2975L58.7801 43.8812C59.7971 43.6237 60.158 43.248 60.158 42.2373C60.158 41.1878 59.4788 40.3165 58.1631 40.3165C56.6074 40.3165 56.0668 41.366 55.8873 42.673C55.1476 42.6553 54.5289 42.3767 54.5289 41.5847ZM60.158 44.0999C59.9589 44.2587 59.5588 44.4756 59.0805 44.615L57.7239 45.0119C56.2873 45.4281 55.8677 46.2201 55.8677 47.0121C55.8677 48.1409 56.6465 48.8729 57.6439 48.8729C58.9205 48.8729 60.158 48.0616 60.158 46.1795V44.0999Z" fill="white"/>
<path d="M64.8623 40.537H63.3262V39.6657H64.8623V37.2298C65.0615 37.131 65.8011 36.8329 66.7986 36.7341V39.6639H69.4335V40.5352H66.7986V46.5535C66.7986 48.2168 67.3177 48.9488 68.4556 48.9488C68.8148 48.9488 69.2131 48.8501 69.6327 48.6913V49.5221C69.1331 49.739 68.4948 49.919 67.5773 49.919C65.842 49.919 64.8641 49.0476 64.8641 46.356V40.537H64.8623Z" fill="white"/>
<path d="M70.9043 49.148C72.2413 49.0881 72.4405 48.8306 72.4405 47.9398V41.5247C72.4405 40.6339 72.1809 40.4152 70.9043 40.3376V39.6638H74.3767V47.9398C74.3767 48.8306 74.5758 49.0881 75.9129 49.148V49.7619H70.9043V49.148ZM73.4006 35.3088C74.1189 35.3088 74.6967 35.8821 74.6967 36.5965C74.6967 37.309 74.1189 37.8841 73.4006 37.8841C72.6823 37.8841 72.1027 37.309 72.1027 36.5965C72.1027 35.8839 72.6805 35.3088 73.4006 35.3088Z" fill="white"/>
<path d="M80.7684 50C77.8543 50 76.0977 47.9205 76.0977 44.7138C76.0977 41.5071 77.8543 39.4275 80.7684 39.4275C83.6825 39.4275 85.4374 41.5071 85.4374 44.7138C85.4374 47.9205 83.6825 50 80.7684 50ZM80.7684 40.3182C78.8926 40.3182 78.1334 42.2973 78.1334 44.7138C78.1334 47.1302 78.8926 49.1093 80.7684 49.1093C82.6442 49.1093 83.4034 47.1302 83.4034 44.7138C83.4034 42.2973 82.6442 40.3182 80.7684 40.3182Z" fill="white"/>
<path d="M86.0771 39.6656H89.3095C89.4091 40.0624 89.45 41.2883 89.45 41.6658C89.9283 40.5369 91.0057 39.4292 92.8033 39.4292C94.2399 39.4292 95.1377 40.043 95.5769 41.0325C95.856 41.6658 95.9165 42.4577 95.9165 43.8635V47.9416C95.9165 48.8323 96.0765 49.0898 97.4136 49.1498V49.7636H94.5795C94.1012 49.7636 93.9803 49.5855 93.9803 49.111V44.1616C93.9803 42.7364 93.9412 42.2814 93.7616 41.7857C93.5411 41.1525 92.9828 40.6762 92.1454 40.6762C90.6288 40.6762 89.5513 41.8245 89.5513 44.5567V47.9416C89.5513 48.8323 89.7309 49.0898 91.0484 49.1498V49.7636H86.0789V49.1498C87.416 49.0898 87.6151 48.8323 87.6151 47.9416V41.5264C87.6151 40.6357 87.3555 40.417 86.0789 40.3394V39.6656H86.0771Z" fill="white"/>
</svg>
